<svg width="24" height="24" viewBox="0 0 24 24" fill="none" xmlns="http://www.w3.org/2000/svg">
<path fill-rule="evenodd" clip-rule="evenodd" d="M6 21C6 19.8954 6.89543 19 8 19C9.10457 19 10 19.8954 10 21C10 22.1046 9.10457 23 8 23C6.89543 23 6 22.1046 6 21Z" fill="black"/>
<path fill-rule="evenodd" clip-rule="evenodd" d="M17 21C17 19.8954 17.8954 19 19 19C20.1046 19 21 19.8954 21 21C21 22.1046 20.1046 23 19 23C17.8954 23 17 22.1046 17 21Z" fill="black"/>
<path fill-rule="evenodd" clip-rule="evenodd" d="M1.04999 2.04999C1.04999 1.4977 1.4977 1.04999 2.04999 1.04999H4.04999C4.52157 1.04999 4.92905 1.37944 5.02781 1.84057L5.92935 6.04999H22.09C22.3933 6.04999 22.6802 6.18763 22.87 6.4242C23.0598 6.66077 23.132 6.9707 23.0662 7.26678L21.4166 14.695C21.4166 14.6952 21.4165 14.6954 21.4165 14.6957C21.2696 15.3622 20.8998 15.9587 20.3681 16.3867C19.8363 16.8149 19.1744 17.0489 18.4916 17.05L8.72004 17.05C8.02666 17.0626 7.35017 16.8346 6.8058 16.4045C6.25824 15.972 5.8786 15.362 5.73223 14.6797L4.15271 7.30467C4.14505 7.27551 4.13868 7.24583 4.13365 7.2157L3.24148 3.04999H2.04999C1.4977 3.04999 1.04999 2.60227 1.04999 2.04999ZM6.35769 8.04999L7.68774 14.2602C7.68777 14.2603 7.68779 14.2605 7.68781 14.2606C7.73665 14.4879 7.86317 14.691 8.0456 14.8352C8.22812 14.9794 8.45519 15.0554 8.68774 15.0502C8.69516 15.0501 8.70257 15.05 8.70999 15.05L18.4884 15.05C18.4886 15.05 18.4888 15.05 18.489 15.05C18.7164 15.0495 18.9368 14.9715 19.1139 14.8289C19.2912 14.6862 19.4144 14.4873 19.4634 14.265L19.4638 14.2632L20.8436 8.04999H6.35769Z" fill="black"/>
</svg>
